<svg width="44" height="43" viewBox="0 0 44 43" fill="none" xmlns="http://www.w3.org/2000/svg">
<g filter="url(#filter0_d_5_99)">
<path d="M4 26.6602C4 28.7793 4.77246 30.6113 6.31738 32.1562C7.87598 33.7148 9.71484 34.4941 11.834 34.4941H26.8252C28.9443 34.4941 30.7559 33.7285 32.2598 32.1973C33.7773 30.666 34.5361 28.8203 34.5361 26.6602C34.5361 25.6074 34.3857 24.7119 34.085 23.9736C35.9033 22.8115 37.3389 21.2666 38.3916 19.3389C39.458 17.3975 39.9912 15.3262 39.9912 13.125C39.9912 11.3477 39.6426 9.65234 38.9453 8.03906C38.2617 6.41211 37.332 5.01758 36.1562 3.85547C34.9805 2.67969 33.5859 1.74316 31.9727 1.0459C30.3594 0.348633 28.6709 0 26.9072 0C24.5146 0 22.3066 0.587891 20.2832 1.76367C18.2734 2.93945 16.6875 4.53223 15.5254 6.54199C14.377 8.55176 13.8027 10.7461 13.8027 13.125V13.8633C11.6016 15.1211 10.1523 16.9395 9.45508 19.3184C7.80078 19.8379 6.47461 20.7607 5.47656 22.0869C4.49219 23.4131 4 24.9375 4 26.6602ZM8.32715 26.6602C8.32715 25.7441 8.62109 24.958 9.20898 24.3018C9.79688 23.6455 10.542 23.2764 11.4443 23.1943L12.8184 23.0098C13.0918 23.0098 13.2285 22.8457 13.2285 22.5176L13.4541 21.2871C13.6045 20.0293 14.1309 18.9766 15.0332 18.1289C15.9492 17.2812 17.0293 16.8574 18.2734 16.8574C19.5449 16.8574 20.6455 17.2812 21.5752 18.1289C22.5186 18.9766 23.0654 20.0293 23.2158 21.2871L23.4004 22.7021C23.5371 23.0303 23.7217 23.1943 23.9541 23.1943H26.8252C27.7686 23.1943 28.582 23.5361 29.2656 24.2197C29.9629 24.9033 30.3115 25.7168 30.3115 26.6602C30.3115 27.6445 29.9629 28.4854 29.2656 29.1826C28.582 29.8799 27.7686 30.2285 26.8252 30.2285H11.834C10.8496 30.2285 10.0156 29.8799 9.33203 29.1826C8.66211 28.4854 8.32715 27.6445 8.32715 26.6602ZM18.0068 12.6738C18.1572 10.2812 19.0801 8.27148 20.7754 6.64453C22.4844 5.01758 24.5283 4.2041 26.9072 4.2041C29.3408 4.2041 31.4053 5.07227 33.1006 6.80859C34.8096 8.54492 35.6641 10.6504 35.6641 13.125C35.6641 14.6562 35.2949 16.0781 34.5566 17.3906C33.8184 18.6895 32.8135 19.7422 31.542 20.5488C30.2568 19.4824 28.7734 18.9492 27.0918 18.9492C26.4492 17.0352 25.3213 15.5107 23.708 14.376C22.1084 13.2412 20.2969 12.6738 18.2734 12.6738H18.0068Z" fill="white" fill-opacity="0.7" shape-rendering="crispEdges"/>
</g>
<defs>
<filter id="filter0_d_5_99" x="0" y="0" width="43.9912" height="42.4941" filterUnits="userSpaceOnUse" color-interpolation-filters="sRGB">
<feFlood flood-opacity="0" result="BackgroundImageFix"/>
<feColorMatrix in="SourceAlpha" type="matrix" values="0 0 0 0 0 0 0 0 0 0 0 0 0 0 0 0 0 0 127 0" result="hardAlpha"/>
<feOffset dy="4"/>
<feGaussianBlur stdDeviation="2"/>
<feComposite in2="hardAlpha" operator="out"/>
<feColorMatrix type="matrix" values="0 0 0 0 0 0 0 0 0 0 0 0 0 0 0 0 0 0 0.25 0"/>
<feBlend mode="normal" in2="BackgroundImageFix" result="effect1_dropShadow_5_99"/>
<feBlend mode="normal" in="SourceGraphic" in2="effect1_dropShadow_5_99" result="shape"/>
</filter>
</defs>
</svg>
